<svg width="183" height="56" viewBox="0 0 183 56" fill="none" xmlns="http://www.w3.org/2000/svg">
<path d="M173.643 41.1317C171.827 41.1317 170.209 40.8206 168.79 40.1984C167.371 39.5761 166.251 38.7299 165.43 37.6597C164.609 36.5646 164.148 35.3451 164.049 34.0011H170.358C170.433 34.7228 170.769 35.3077 171.366 35.7557C171.963 36.2037 172.698 36.4277 173.569 36.4277C174.365 36.4277 174.975 36.2784 175.398 35.9797C175.846 35.6562 176.07 35.2455 176.07 34.7477C176.07 34.1504 175.759 33.7149 175.137 33.4411C174.515 33.1424 173.507 32.8189 172.113 32.4704C170.619 32.122 169.375 31.7611 168.379 31.3878C167.384 30.9895 166.525 30.3798 165.803 29.5584C165.082 28.7122 164.721 27.5798 164.721 26.1611C164.721 24.9665 165.044 23.8838 165.691 22.9132C166.363 21.9176 167.334 21.1336 168.603 20.5612C169.898 19.9887 171.428 19.7025 173.195 19.7025C175.809 19.7025 177.862 20.3496 179.355 21.6438C180.874 22.938 181.745 24.6554 181.969 26.7958H176.07C175.971 26.074 175.647 25.5016 175.099 25.0785C174.577 24.6554 173.88 24.4438 173.009 24.4438C172.262 24.4438 171.69 24.5931 171.291 24.8918C170.893 25.1656 170.694 25.5514 170.694 26.0491C170.694 26.6465 171.005 27.0945 171.627 27.3931C172.275 27.6918 173.27 27.9905 174.614 28.2891C176.157 28.6873 177.414 29.0856 178.385 29.4838C179.355 29.8571 180.202 30.4793 180.923 31.3504C181.67 32.1966 182.056 33.3415 182.081 34.7851C182.081 36.0046 181.732 37.0997 181.035 38.0704C180.363 39.0162 179.38 39.7628 178.086 40.3104C176.817 40.8579 175.336 41.1317 173.643 41.1317Z" fill="#FCFCFC"/>
<path d="M139.307 30.3797C139.307 28.2393 139.705 26.3602 140.501 24.7425C141.323 23.1247 142.43 21.8803 143.824 21.0092C145.218 20.138 146.773 19.7025 148.491 19.7025C149.859 19.7025 151.104 19.9887 152.224 20.5612C153.369 21.1336 154.265 21.9051 154.912 22.8758V13.2065H161.296V40.833H154.912V37.8464C154.315 38.8419 153.456 39.6383 152.336 40.2357C151.241 40.833 149.959 41.1317 148.491 41.1317C146.773 41.1317 145.218 40.6961 143.824 39.825C142.43 38.929 141.323 37.6721 140.501 36.0544C139.705 34.4117 139.307 32.5202 139.307 30.3797ZM154.912 30.4171C154.912 28.8242 154.464 27.5673 153.568 26.6464C152.697 25.7256 151.627 25.2651 150.357 25.2651C149.088 25.2651 148.005 25.7256 147.109 26.6464C146.238 27.5424 145.803 28.7869 145.803 30.3797C145.803 31.9726 146.238 33.2419 147.109 34.1877C148.005 35.1086 149.088 35.569 150.357 35.569C151.627 35.569 152.697 35.1086 153.568 34.1877C154.464 33.2668 154.912 32.01 154.912 30.4171Z" fill="#FCFCFC"/>
<path d="M131.737 23.4731C132.484 22.3282 133.417 21.4322 134.537 20.7851C135.657 20.1131 136.902 19.7771 138.271 19.7771V26.5344H136.516C134.923 26.5344 133.729 26.8828 132.932 27.5797C132.136 28.2517 131.737 29.4464 131.737 31.1637V40.8329H125.354V20.0011H131.737V23.4731Z" fill="#FCFCFC"/>
<path d="M99.4941 30.3798C99.4941 28.2393 99.8924 26.3602 100.689 24.7425C101.51 23.1247 102.618 21.8803 104.011 21.0092C105.405 20.1381 106.961 19.7025 108.678 19.7025C110.147 19.7025 111.428 20.0012 112.523 20.5985C113.643 21.1958 114.502 21.9798 115.099 22.9505V20.0012H121.483V40.833H115.099V37.8837C114.477 38.8544 113.606 39.6384 112.486 40.2357C111.391 40.833 110.109 41.1317 108.641 41.1317C106.948 41.1317 105.405 40.6961 104.011 39.825C102.618 38.929 101.51 37.6722 100.689 36.0544C99.8924 34.4117 99.4941 32.5202 99.4941 30.3798ZM115.099 30.4171C115.099 28.8242 114.651 27.5673 113.755 26.6465C112.884 25.7256 111.814 25.2651 110.545 25.2651C109.275 25.2651 108.193 25.7256 107.297 26.6465C106.426 27.5425 105.99 28.7869 105.99 30.3798C105.99 31.9726 106.426 33.242 107.297 34.1877C108.193 35.1086 109.275 35.5691 110.545 35.5691C111.814 35.5691 112.884 35.1086 113.755 34.1877C114.651 33.2669 115.099 32.01 115.099 30.4171Z" fill="#FCFCFC"/>
<path d="M89.1588 19.7772C91.5481 19.7772 93.4645 20.5736 94.908 22.1665C96.3516 23.7345 97.0734 25.8998 97.0734 28.6624V40.833H90.7267V29.5211C90.7267 28.1273 90.3659 27.0447 89.6441 26.2731C88.9223 25.5016 87.9517 25.1158 86.7321 25.1158C85.5126 25.1158 84.5419 25.5016 83.8201 26.2731C83.0984 27.0447 82.7375 28.1273 82.7375 29.5211V40.833H76.3535V13.2065H82.7375V22.8011C83.3846 21.8803 84.2681 21.146 85.3881 20.5985C86.5081 20.0509 87.765 19.7772 89.1588 19.7772Z" fill="#FCFCFC"/>
<path d="M63.614 41.0943C61.6976 41.0943 59.9803 40.7832 58.4621 40.161C56.9439 39.5388 55.7243 38.6179 54.8034 37.3983C53.9074 36.1788 53.4345 34.7103 53.3848 32.993H60.1794C60.2789 33.9637 60.6149 34.7103 61.1874 35.233C61.7598 35.7308 62.5065 35.9797 63.4274 35.9797C64.3731 35.9797 65.1198 35.7681 65.6673 35.345C66.2149 34.897 66.4887 34.2872 66.4887 33.5157C66.4887 32.8686 66.2647 32.3335 65.8167 31.9104C65.3936 31.4873 64.8585 31.1388 64.2114 30.865C63.5891 30.5913 62.6931 30.2802 61.5234 29.9317C59.8309 29.409 58.4496 28.8864 57.3794 28.3637C56.3092 27.8411 55.3883 27.0695 54.6168 26.0491C53.8452 25.0286 53.4594 23.6971 53.4594 22.0544C53.4594 19.6153 54.343 17.7114 56.1101 16.3425C57.8772 14.9487 60.1794 14.2518 63.0167 14.2518C65.9038 14.2518 68.2309 14.9487 69.998 16.3425C71.7651 17.7114 72.7108 19.6278 72.8353 22.0918H65.9287C65.8789 21.2456 65.5678 20.586 64.9953 20.1131C64.4229 19.6153 63.6887 19.3665 62.7927 19.3665C62.0211 19.3665 61.3989 19.578 60.926 20.0011C60.4532 20.3993 60.2167 20.9842 60.2167 21.7558C60.2167 22.602 60.6149 23.2615 61.4114 23.7344C62.2078 24.2073 63.4522 24.7175 65.1447 25.2651C66.8371 25.8375 68.206 26.3851 69.2513 26.9077C70.3215 27.4304 71.2424 28.1895 72.014 29.1851C72.7855 30.1806 73.1713 31.4624 73.1713 33.0304C73.1713 34.5237 72.7855 35.8801 72.014 37.0997C71.2673 38.3192 70.1722 39.2899 68.7287 40.0116C67.2851 40.7334 65.5802 41.0943 63.614 41.0943Z" fill="#FCFCFC"/>
<path d="M16.0734 29.3198L28.4983 16.2628L30.0261 12.3726L40.2807 0L32.7727 3.61434L30.5133 3.28434L20.6114 9.83904L16.7107 11.2446L5.21289 30.8197L14.673 30.0933L16.0734 29.3198Z" fill="white"/>
<path d="M29.4211 20.3909L16.9961 33.4479L15.4666 37.3381L0 56L12.7218 46.0946L14.9812 46.4264L24.8831 39.8717L28.7838 38.4661L40.2816 18.8893L30.8214 19.6174L29.4211 20.3909Z" fill="white"/>
</svg>
