<svg width="83" height="74" viewBox="0 0 83 74" fill="none" xmlns="http://www.w3.org/2000/svg">
<path d="M38.1862 23.7243L48.24 13.1591L49.4762 10.0113L57.7738 0L51.6986 2.92457L49.8704 2.65754L41.8582 7.96131L38.7019 9.09865L29.3984 24.9379L37.0532 24.3502L38.1862 23.7243Z" fill="#DF4D47"/>
<path d="M48.9859 16.4993L38.9322 27.0645L37.6946 30.2123L25.1797 45.3126L35.4736 37.2976L37.3018 37.5661L45.314 32.2623L48.4702 31.125L57.7737 15.2843L50.119 15.8735L48.9859 16.4993Z" fill="#DF4D47"/>
<path d="M77.5146 73.3128C76.3434 73.3128 75.3007 73.1123 74.3862 72.7112C73.4718 72.3102 72.7499 71.7647 72.2205 71.0749C71.691 70.369 71.3942 69.5829 71.3301 68.7166H75.3969C75.445 69.1818 75.6616 69.5588 76.0467 69.8476C76.4317 70.1364 76.9049 70.2807 77.4664 70.2807C77.9798 70.2807 78.3729 70.1845 78.6456 69.992C78.9344 69.7834 79.0787 69.5187 79.0787 69.1979C79.0787 68.8128 78.8782 68.5321 78.4771 68.3556C78.0761 68.1631 77.4263 67.9545 76.5279 67.7299C75.5654 67.5053 74.7632 67.2727 74.1215 67.0321C73.4798 66.7754 72.9263 66.3824 72.4611 65.8529C71.9959 65.3075 71.7632 64.5775 71.7632 63.6631C71.7632 62.893 71.9718 62.1952 72.3889 61.5695C72.8221 60.9278 73.4477 60.4225 74.2659 60.0535C75.1001 59.6845 76.0868 59.5 77.2258 59.5C78.9103 59.5 80.2338 59.9171 81.1964 60.7513C82.175 61.5856 82.7365 62.6925 82.8809 64.0722H79.0787C79.0146 63.607 78.806 63.238 78.4531 62.9652C78.1162 62.6925 77.667 62.5562 77.1055 62.5562C76.6242 62.5562 76.2552 62.6524 75.9985 62.8449C75.7418 63.0214 75.6135 63.2701 75.6135 63.5909C75.6135 63.9759 75.814 64.2647 76.2151 64.4572C76.6322 64.6497 77.2739 64.8422 78.1402 65.0348C79.1349 65.2914 79.945 65.5481 80.5707 65.8048C81.1964 66.0455 81.7418 66.4465 82.2071 67.008C82.6884 67.5535 82.937 68.2914 82.9531 69.2219C82.9531 70.008 82.7285 70.7139 82.2793 71.3396C81.8461 71.9492 81.2124 72.4305 80.3782 72.7834C79.56 73.1364 78.6055 73.3128 77.5146 73.3128Z" fill="white"/>
<path d="M55.3828 66.3823C55.3828 65.0026 55.6395 63.7914 56.1529 62.7486C56.6823 61.7058 57.3962 60.9037 58.2946 60.3422C59.193 59.7807 60.1956 59.4999 61.3026 59.4999C62.1849 59.4999 62.9871 59.6844 63.709 60.0534C64.447 60.4224 65.0245 60.9197 65.4416 61.5454V55.3127H69.5566V73.1202H65.4416V71.1951C65.0566 71.8368 64.5031 72.3502 63.7812 72.7352C63.0753 73.1202 62.2491 73.3127 61.3026 73.3127C60.1956 73.3127 59.193 73.032 58.2946 72.4705C57.3962 71.893 56.6823 71.0828 56.1529 70.04C55.6395 68.9812 55.3828 67.7619 55.3828 66.3823ZM65.4416 66.4063C65.4416 65.3796 65.1529 64.5694 64.5753 63.9758C64.0138 63.3823 63.324 63.0855 62.5058 63.0855C61.6876 63.0855 60.9898 63.3823 60.4122 63.9758C59.8507 64.5534 59.57 65.3555 59.57 66.3823C59.57 67.409 59.8507 68.2272 60.4122 68.8368C60.9898 69.4304 61.6876 69.7272 62.5058 69.7272C63.324 69.7272 64.0138 69.4304 64.5753 68.8368C65.1529 68.2432 65.4416 67.4331 65.4416 66.4063Z" fill="white"/>
<path d="M50.5076 61.9304C50.9888 61.1925 51.5904 60.6149 52.3124 60.1978C53.0343 59.7647 53.8364 59.5481 54.7188 59.5481V63.9037H53.5878C52.561 63.9037 51.791 64.1283 51.2776 64.5775C50.7642 65.0107 50.5076 65.7807 50.5076 66.8877V73.1203H46.3926V59.6925H50.5076V61.9304Z" fill="white"/>
<path d="M29.7188 66.3824C29.7188 65.0027 29.9754 63.7914 30.4888 62.7487C31.0182 61.7059 31.7321 60.9037 32.6305 60.3422C33.5289 59.7807 34.5316 59.5 35.6385 59.5C36.5851 59.5 37.4113 59.6925 38.1171 60.0775C38.8391 60.4626 39.3925 60.9679 39.7776 61.5936V59.6925H43.8925V73.1203H39.7776V71.2193C39.3765 71.8449 38.815 72.3503 38.0931 72.7353C37.3872 73.1203 36.561 73.3128 35.6145 73.3128C34.5236 73.3128 33.5289 73.0321 32.6305 72.4706C31.7321 71.893 31.0182 71.0829 30.4888 70.0401C29.9754 68.9813 29.7188 67.762 29.7188 66.3824ZM39.7776 66.4064C39.7776 65.3797 39.4888 64.5695 38.9113 63.9759C38.3498 63.3824 37.6599 63.0856 36.8417 63.0856C36.0236 63.0856 35.3257 63.3824 34.7482 63.9759C34.1867 64.5535 33.9059 65.3556 33.9059 66.3824C33.9059 67.4091 34.1867 68.2273 34.7482 68.8369C35.3257 69.4305 36.0236 69.7273 36.8417 69.7273C37.6599 69.7273 38.3498 69.4305 38.9113 68.8369C39.4888 68.2433 39.7776 67.4332 39.7776 66.4064Z" fill="white"/>
<path d="M23.0587 59.548C24.5988 59.548 25.8341 60.0614 26.7646 61.0881C27.6951 62.0988 28.1603 63.4946 28.1603 65.2753V73.1202H24.0694V65.8288C24.0694 64.9304 23.8368 64.2325 23.3715 63.7352C22.9063 63.2379 22.2806 62.9892 21.4945 62.9892C20.7084 62.9892 20.0828 63.2379 19.6175 63.7352C19.1523 64.2325 18.9197 64.9304 18.9197 65.8288V73.1202H14.8047V55.3127H18.9197V61.4972C19.3368 60.9037 19.9063 60.4304 20.6282 60.0774C21.3501 59.7245 22.1603 59.548 23.0587 59.548Z" fill="white"/>
<path d="M6.59358 73.2887C5.35829 73.2887 4.25134 73.0882 3.27273 72.6871C2.29412 72.286 1.50802 71.6925 0.914438 70.9064C0.336898 70.1203 0.0320856 69.1737 0 68.0668H4.37968C4.44385 68.6925 4.66043 69.1737 5.02941 69.5106C5.3984 69.8315 5.87968 69.9919 6.47326 69.9919C7.08289 69.9919 7.56417 69.8556 7.91711 69.5828C8.27005 69.2941 8.44652 68.901 8.44652 68.4037C8.44652 67.9866 8.30214 67.6417 8.01337 67.3689C7.74064 67.0962 7.39572 66.8716 6.97861 66.6951C6.57754 66.5187 6 66.3181 5.24599 66.0935C4.15508 65.7566 3.26471 65.4197 2.57487 65.0828C1.88503 64.7459 1.29144 64.2486 0.794118 63.5908C0.296791 62.9331 0.0481283 62.0748 0.0481283 61.016C0.0481283 59.4438 0.617647 58.2165 1.75668 57.3342C2.89572 56.4358 4.37968 55.9866 6.20856 55.9866C8.06952 55.9866 9.56952 56.4358 10.7086 57.3342C11.8476 58.2165 12.4572 59.4518 12.5374 61.04H8.08556C8.05348 60.4946 7.85294 60.0695 7.48396 59.7646C7.11497 59.4438 6.64171 59.2834 6.06417 59.2834C5.56684 59.2834 5.16578 59.4197 4.86096 59.6925C4.55615 59.9491 4.40374 60.3261 4.40374 60.8235C4.40374 61.3689 4.66043 61.7941 5.1738 62.0989C5.68717 62.4037 6.4893 62.7326 7.58021 63.0855C8.67112 63.4545 9.55348 63.8074 10.2273 64.1443C10.9171 64.4812 11.5107 64.9705 12.008 65.6122C12.5053 66.254 12.754 67.0802 12.754 68.0909C12.754 69.0534 12.5053 69.9277 12.008 70.7138C11.5267 71.4999 10.8209 72.1256 9.89037 72.5909C8.95989 73.0561 7.86096 73.2887 6.59358 73.2887Z" fill="white"/>
</svg>
